#tb 0: 1/25
0,          0,          0,        1,   168000, 0x45addf8f
0,          1,          1,        1,   168000, 0x45addf8f
0,          2,          2,        1,   168000, 0x45addf8f
0,          3,          3,        1,   168000, 0x45addf8f
0,          4,          4,        1,   168000, 0x45addf8f
0,          5,          5,        1,   168000, 0x45addf8f
0,          6,          6,        1,   168000, 0x45addf8f
0,          7,          7,        1,   168000, 0x45addf8f
0,          8,          8,        1,   168000, 0x45addf8f
0,          9,          9,        1,   168000, 0x45addf8f
0,         10,         10,        1,   168000, 0x45addf8f
0,         11,         11,        1,   168000, 0x45addf8f
0,         12,         12,        1,   168000, 0x8730699b
0,         13,         13,        1,   168000, 0x08b095df
0,         14,         14,        1,   168000, 0x203526e3
0,         15,         15,        1,   168000, 0x0ebc5142
0,         16,         16,        1,   168000, 0xd168e7c2
0,         17,         17,        1,   168000, 0xcc7da0e6
0,         18,         18,        1,   168000, 0x72ac60b8
0,         19,         19,        1,   168000, 0xb691e27c
0,         20,         20,        1,   168000, 0x646fa087
0,         21,         21,        1,   168000, 0x404450a2
0,         22,         22,        1,   168000, 0x5214c456
